<?xml version="1.0" standalone="no"?>
<!DOCTYPE svg PUBLIC "-//W3C//DTD SVG 20010904//EN"
 "http://www.w3.org/TR/2001/REC-SVG-20010904/DTD/svg10.dtd">
<svg version="1.0" xmlns="http://www.w3.org/2000/svg"
 width="600.000000pt" height="600.000000pt" viewBox="0 0 600.000000 600.000000"
 preserveAspectRatio="xMidYMid meet">

<g transform="translate(0.000000,600.000000) scale(0.100000,-0.100000)"
fill="#000000" stroke="none">
<path d="M2905 5413 c-576 -22 -1142 -267 -1556 -675 -215 -212 -410 -497
-520 -760 l-32 -78 -223 0 -224 0 0 -637 c0 -600 2 -640 19 -678 43 -92 108
-125 249 -125 l99 0 22 -77 c99 -344 301 -689 565 -960 l99 -103 56 52 c31 28
85 73 120 99 l64 49 61 -50 c505 -411 1176 -558 1809 -396 277 71 524 193 752
371 l94 74 63 -48 c35 -26 88 -71 119 -99 l56 -52 99 103 c248 255 433 559
539 884 l50 153 183 0 182 0 0 638 c0 599 -2 639 -19 677 -10 22 -31 52 -47
67 -52 49 -91 58 -242 58 l-138 0 -23 58 c-40 99 -150 303 -216 402 -291 435
-713 761 -1200 927 -266 91 -577 137 -860 126z m465 -98 c329 -60 613 -171
875 -343 290 -189 553 -463 721 -748 60 -102 154 -292 154 -311 0 -10 -32 -13
-125 -13 l-125 0 -41 82 c-264 525 -757 920 -1328 1062 -303 76 -597 83 -911
20 -598 -119 -1115 -508 -1406 -1059 l-56 -105 -125 0 c-147 0 -141 -17 -53
165 336 688 1014 1169 1783 1265 119 14 527 5 637 -15z m-225 -285 c430 -35
805 -189 1134 -465 190 -160 371 -386 480 -603 l31 -62 -1785 0 c-1352 0
-1785 3 -1785 12 0 19 79 158 151 263 327 481 883 806 1461 854 149 12 172 12
313 1z m565 -1575 l0 -55 -60 0 -60 0 0 55 0 55 60 0 60 0 0 -55z m-2208 8
c81 -36 86 -45 54 -93 -14 -22 -28 -40 -30 -40 -2 0 -34 14 -70 31 -55 26 -76
31 -117 27 -61 -6 -89 -30 -89 -75 0 -43 32 -63 144 -93 154 -41 206 -90 206
-193 0 -62 -14 -99 -52 -133 -47 -43 -89 -58 -173 -58 -94 0 -161 20 -229 68
l-47 33 38 42 38 41 44 -30 c100 -68 225 -67 259 2 27 57 -19 93 -164 127 -77
18 -148 63 -169 107 -26 54 -17 141 19 188 65 86 207 107 338 49z m2448 -68
l0 -65 65 0 65 0 0 -50 0 -50 -65 0 -65 0 0 -129 c0 -156 6 -167 82 -158 l48
6 0 -44 c0 -35 -4 -47 -22 -56 -30 -16 -117 -16 -156 0 -55 23 -65 56 -70 229
l-4 152 -29 0 c-28 0 -29 2 -29 50 0 49 1 50 30 50 l30 0 0 65 0 65 60 0 60 0
0 -65z m1000 -90 l0 -85 85 0 85 0 0 -55 0 -55 -85 0 -85 0 0 -85 0 -85 -55 0
-55 0 0 85 0 84 -87 3 -88 3 -3 53 -3 52 90 0 91 0 0 85 0 85 55 0 55 0 0 -85z
m-2924 -1 c64 -39 104 -113 107 -199 l2 -60 -177 -5 -176 -5 13 -32 c30 -72
138 -96 209 -48 20 14 40 25 44 25 4 0 20 -12 36 -26 36 -32 30 -46 -37 -87
-121 -76 -290 -30 -353 95 -50 99 -28 244 48 315 75 70 196 82 284 27z m547 3
c68 -40 70 -46 32 -90 l-33 -38 -39 25 c-50 33 -85 40 -126 27 -93 -31 -130
-157 -70 -240 11 -14 36 -34 57 -45 45 -22 88 -16 142 20 l37 26 35 -35 34
-34 -28 -27 c-122 -112 -320 -75 -397 74 -25 49 -28 63 -24 126 6 112 64 193
164 230 58 22 162 13 216 -19z m957 -27 l0 -59 -34 -6 c-54 -11 -96 -42 -116
-88 -16 -34 -20 -65 -20 -164 l0 -123 -60 0 -60 0 0 245 0 245 60 0 60 0 0
-47 0 -48 20 33 c21 34 87 71 128 72 20 0 22 -4 22 -60z m-719 -97 c0 -87 5
-162 12 -183 22 -65 104 -81 159 -31 l33 29 3 166 3 166 60 0 59 0 0 -245 0
-245 -60 0 -60 0 0 32 0 31 -23 -21 c-30 -28 -89 -52 -129 -52 -48 1 -112 33
-139 71 -23 33 -24 41 -27 232 l-3 197 55 0 56 0 1 -147z m899 -98 l0 -245
-60 0 -60 0 0 245 0 245 60 0 60 0 0 -245z m601 75 c35 -93 66 -170 69 -170 3
0 31 77 64 170 l58 170 59 0 c32 0 59 -3 59 -8 0 -16 -202 -528 -221 -558 -30
-49 -66 -68 -129 -69 -30 0 -69 6 -87 13 l-31 14 15 36 c20 51 26 54 58 42 38
-15 73 -5 86 23 10 23 -3 59 -176 470 l-15 37 63 0 64 0 64 -170z m-3241 -791
c93 -261 259 -528 450 -725 l69 -72 -94 -75 -94 -75 -66 69 c-242 257 -429
581 -528 917 l-16 52 123 0 123 0 33 -91z m3807 63 c-11 -56 -109 -270 -169
-372 -35 -58 -90 -141 -123 -185 -60 -81 -221 -255 -235 -255 -4 0 -46 24 -92
53 -288 181 -718 327 -962 327 l-86 0 0 78 c-1 86 -15 136 -53 186 -47 61
-147 90 -223 66 -100 -32 -144 -102 -152 -241 l-5 -89 -79 0 c-235 0 -632
-134 -932 -314 -60 -36 -113 -66 -116 -66 -12 0 -161 160 -211 225 -76 99
-153 223 -212 340 -50 100 -107 242 -107 266 0 5 713 9 1881 9 l1882 0 -6 -28z
m333 25 c0 -15 -80 -239 -111 -310 -100 -231 -256 -467 -435 -656 l-66 -70
-81 66 c-45 36 -86 69 -91 73 -4 5 31 53 79 107 202 225 338 449 425 701 l33
92 123 0 c68 0 124 -2 124 -3z m-2150 -206 c53 -28 80 -88 80 -178 l0 -73
-145 0 -145 0 0 53 c1 170 96 260 210 198z m-430 -621 l0 -300 299 0 c311 0
336 3 380 43 55 50 61 83 61 329 l0 228 33 -6 c184 -31 431 -112 612 -200 116
-56 275 -150 275 -162 -1 -12 -135 -113 -233 -176 -688 -440 -1595 -402 -2245
93 -116 87 -114 82 -35 132 157 99 403 207 588 259 67 19 232 57 258 59 4 1 7
-134 7 -299z m670 80 c0 -177 -3 -227 -15 -250 -31 -59 -35 -60 -322 -60
l-263 0 0 265 0 265 300 0 300 0 0 -220z"/>
<path d="M1990 4531 c-101 -36 -156 -133 -130 -227 41 -145 231 -198 349 -98
64 55 24 77 -54 29 -78 -48 -180 -27 -225 47 -57 94 19 208 138 208 47 0 71
-10 115 -46 54 -45 94 -25 51 26 -58 69 -154 93 -244 61z"/>
<path d="M3200 4531 c0 -28 34 -41 105 -41 l74 0 3 -156 c3 -150 4 -157 26
-172 l22 -14 0 170 0 171 76 3 c67 3 79 6 92 26 l14 22 -206 0 c-120 0 -206
-4 -206 -9z"/>
<path d="M3630 4361 c0 -175 1 -180 23 -196 l22 -15 3 181 c2 183 -2 209 -34
209 -11 0 -14 -34 -14 -179z"/>
<path d="M3872 4527 c-14 -17 -173 -369 -169 -373 2 -2 18 1 36 7 23 8 36 22
48 50 l15 39 104 0 104 0 13 -32 c17 -41 40 -61 66 -56 18 3 12 19 -61 178
-44 96 -84 181 -90 187 -13 17 -53 17 -66 0z m73 -133 c19 -42 35 -78 35 -80
0 -2 -33 -4 -74 -4 l-75 0 36 80 c20 44 38 80 39 80 2 0 19 -34 39 -76z"/>
<path d="M2333 4415 c-45 -19 -73 -69 -73 -128 0 -42 5 -54 33 -82 111 -111
306 -19 267 125 -23 84 -134 126 -227 85z m127 -50 c57 -29 65 -81 21 -126
-23 -23 -38 -29 -71 -29 -33 0 -48 6 -71 29 -44 44 -36 96 19 125 35 20 66 20
102 1z"/>
<path d="M2618 4401 c-33 -29 -33 -29 -36 -139 -4 -109 -3 -111 18 -105 29 8
40 41 40 122 0 53 4 72 18 84 23 21 42 21 68 3 15 -12 20 -30 24 -102 4 -76 8
-89 28 -102 l22 -14 0 96 c0 83 3 99 20 116 24 24 38 25 68 4 19 -13 22 -24
22 -90 0 -83 11 -114 40 -114 18 0 20 7 20 85 0 95 -15 143 -51 169 -29 20
-98 21 -125 1 -19 -12 -24 -12 -40 0 -11 8 -38 15 -61 15 -33 0 -50 -6 -75
-29z"/>
<path d="M3063 4411 c-55 -34 -63 -63 -63 -222 l0 -141 23 14 c20 14 22 25 27
141 6 144 16 164 87 174 54 7 103 -32 103 -83 0 -70 -73 -103 -152 -69 -14 6
-18 2 -18 -18 0 -68 124 -72 189 -6 55 54 50 137 -9 194 -41 39 -137 47 -187
16z"/>
<path d="M4109 4214 c-12 -15 -12 -17 0 -9 10 6 13 4 9 -6 -4 -9 2 -14 17 -15
16 -1 21 4 20 20 -2 27 -28 32 -46 10z"/>
<path d="M1835 3218 c-23 -18 -55 -72 -55 -93 0 -3 54 -5 120 -5 76 0 120 4
120 10 0 24 -30 79 -51 94 -34 23 -100 21 -134 -6z"/>
<path d="M4585 1478 l-20 -21 23 12 c12 6 22 16 22 21 0 13 -2 12 -25 -12z"/>
<path d="M2960 1720 c-11 -11 -20 -29 -20 -40 0 -11 9 -29 20 -40 11 -11 29
-20 40 -20 11 0 29 9 40 20 11 11 20 29 20 40 0 11 -9 29 -20 40 -11 11 -29
20 -40 20 -11 0 -29 -9 -40 -20z"/>
<path d="M4205 1224 c-38 -25 -76 -49 -83 -53 -11 -6 5 -36 62 -125 l76 -117
77 52 c99 66 99 65 84 83 -11 13 -21 9 -73 -25 -34 -21 -64 -39 -68 -39 -7 0
-40 44 -40 53 0 2 25 21 55 40 37 25 53 42 49 52 -9 22 -24 19 -81 -20 l-51
-34 -16 24 c-9 13 -16 29 -16 34 0 5 27 27 60 47 40 25 59 42 55 52 -3 7 -5
16 -5 18 0 10 -20 0 -85 -42z"/>
<path d="M1650 1249 c-37 -15 -78 -58 -91 -96 -28 -87 45 -183 140 -183 26 0
31 4 31 25 0 22 -4 25 -39 25 -32 0 -44 6 -66 32 -22 26 -26 39 -21 67 7 45
55 91 95 91 32 0 91 -43 91 -66 0 -8 10 -14 25 -14 14 0 25 6 25 13 0 29 -43
79 -83 97 -47 22 -70 24 -107 9z"/>
<path d="M1833 1022 l-62 -118 91 -48 c72 -39 92 -46 99 -35 15 24 11 28 -53
60 -35 17 -65 33 -67 35 -7 7 22 64 33 64 6 0 35 -13 64 -29 49 -28 53 -28 62
-11 9 16 2 23 -49 50 l-60 32 16 33 16 33 68 -37 c59 -31 71 -34 79 -21 5 8
10 17 10 20 0 6 -166 90 -178 90 -4 0 -35 -53 -69 -118z"/>
<path d="M3971 1093 c-92 -46 -95 -190 -6 -249 57 -37 158 -12 195 48 35 58 0
66 -53 13 -45 -45 -86 -47 -128 -6 -23 24 -29 38 -29 73 0 57 32 91 88 92 37
1 52 10 52 34 0 18 -78 15 -119 -5z"/>
<path d="M2076 905 c-27 -70 -46 -128 -44 -130 1 -2 12 -5 23 -7 15 -2 23 6
34 39 13 36 19 42 36 37 34 -11 44 -24 56 -79 9 -40 17 -55 32 -59 29 -7 32
-2 19 43 -16 53 -15 71 6 71 54 0 89 77 57 126 -15 24 -93 66 -148 79 -23 6
-27 -1 -71 -120z m144 45 c29 -15 40 -27 40 -43 0 -47 -39 -59 -104 -32 l-36
15 15 36 c8 20 15 38 15 40 0 10 35 2 70 -16z"/>
<path d="M2360 939 c0 -4 -3 -14 -6 -22 -4 -11 5 -17 35 -22 49 -8 49 -8 16
-135 -24 -95 -23 -109 11 -110 7 0 24 50 39 110 15 61 30 110 34 110 3 0 22
-4 43 -9 32 -8 37 -6 42 12 3 12 4 22 3 22 -13 9 -217 50 -217 44z"/>
<path d="M3415 899 c-22 -5 -45 -11 -51 -13 -8 -3 -3 -44 17 -132 16 -70 31
-129 33 -132 9 -8 122 21 152 39 60 36 80 115 46 178 -33 62 -99 82 -197 60z
m114 -43 c51 -27 66 -95 30 -139 -19 -25 -94 -55 -106 -43 -11 11 -43 170 -36
177 22 20 77 22 112 5z"/>
<path d="M2603 758 c-12 -73 -19 -136 -16 -140 2 -5 13 -8 24 -8 10 0 19 3 19
8 0 4 9 63 20 131 21 126 19 140 -16 141 -6 0 -19 -58 -31 -132z"/>
<path d="M3191 869 c-47 -5 -86 -10 -87 -12 -4 -5 23 -258 29 -263 3 -4 49 -3
102 1 92 7 95 8 95 31 0 20 -4 24 -22 20 -13 -3 -49 -7 -80 -10 l-58 -6 0 40
c0 39 1 40 34 40 63 0 96 11 96 32 0 19 -5 20 -69 13 l-69 -7 -4 36 -4 35 56
6 c30 3 64 7 75 8 12 1 21 11 23 25 4 25 11 24 -117 11z"/>
<path d="M3753 873 c-19 -7 -16 -51 4 -62 37 -20 71 27 41 57 -13 13 -24 14
-45 5z"/>
<path d="M2738 864 c-3 -5 -9 -66 -13 -136 -6 -115 -5 -129 10 -134 23 -9 35
12 35 64 l0 42 70 0 c63 0 70 2 70 20 0 15 -7 20 -27 20 -16 0 -45 3 -65 6
-36 6 -38 9 -38 42 l0 35 80 -5 c78 -5 80 -4 80 19 0 19 -5 23 -32 23 -18 0
-63 3 -99 6 -36 4 -69 3 -71 -2z"/>
<path d="M2990 720 l0 -140 25 0 25 0 0 140 0 140 -25 0 -25 0 0 -140z"/>
</g>
</svg>
